<?xml version="1.0" encoding="UTF-8" standalone="no"?><!DOCTYPE svg PUBLIC "-//W3C//DTD SVG 1.1//EN" "http://www.w3.org/Graphics/SVG/1.1/DTD/svg11.dtd"><svg width="100%" height="100%" viewBox="0 0 514 118" version="1.1" xmlns="http://www.w3.org/2000/svg" xmlns:xlink="http://www.w3.org/1999/xlink" xml:space="preserve" xmlns:serif="http://www.serif.com/" style="fill-rule:evenodd;clip-rule:evenodd;stroke-linejoin:round;stroke-miterlimit:1.41421;"><g id="PEP-Green-Full"><g id="Group-6"><path id="Shape" d="M43.66,50.15l28.143,-48.734c-4.13,-0.885 -8.378,-1.416 -12.803,-1.416c-14.16,0 -27.14,5.015 -37.288,13.275l21.594,37.465l0.354,-0.59Zm71.626,-8.85c-5.428,-17.228 -18.585,-31.034 -35.4,-37.406l-21.594,37.406l56.994,0Zm1.534,6.9l-44.191,0l1.711,2.95l28.084,48.675c9.676,-10.502 15.576,-24.426 15.576,-39.825c0,-4.071 -0.413,-7.965 -1.18,-11.8Zm-78.234,10.8l-23.01,-39.825c-9.617,10.502 -15.576,24.426 -15.576,39.825c0,4.071 0.413,7.965 1.18,11.8l44.191,0l-6.785,-11.8Zm-35.872,17.7c5.428,17.228 18.585,31.034 35.4,37.406l21.594,-37.406l-56.994,0Zm66.493,0l-23.01,39.884c4.13,0.885 8.378,1.416 12.803,1.416c14.16,0 27.14,-5.015 37.288,-13.275l-21.594,-37.465l-5.487,9.44Z" style="fill:#fff;"/></g><path id="CHAIN" d="M328.289,67.797l0.078,0.234c0.104,5.339 -1.771,9.805 -5.625,13.399c-3.854,3.593 -8.945,5.39 -15.273,5.39c-6.433,0 -11.673,-2.278 -15.723,-6.836c-4.049,-4.557 -6.074,-10.338 -6.074,-17.343l0,-10.118c0,-7.005 2.025,-12.793 6.074,-17.363c4.05,-4.57 9.29,-6.855 15.723,-6.855c6.432,0 11.549,1.712 15.351,5.136c3.802,3.425 5.651,7.963 5.547,13.614l-0.078,0.234l-7.383,0c0,-3.984 -1.172,-7.135 -3.515,-9.453c-2.344,-2.318 -5.651,-3.477 -9.922,-3.477c-4.297,0 -7.722,1.732 -10.274,5.196c-2.552,3.463 -3.828,7.76 -3.828,12.89l0,10.196c0,5.182 1.276,9.505 3.828,12.968c2.552,3.464 5.977,5.196 10.274,5.196c4.271,0 7.578,-1.153 9.922,-3.457c2.343,-2.305 3.515,-5.489 3.515,-9.551l7.383,0Zm53.477,18.203l-7.696,0l0,-25.117l-27.617,0l0,25.117l-7.695,0l0,-56.875l7.695,0l0,25.703l27.617,0l0,-25.703l7.696,0l0,56.875Zm45.586,-14.648l-23.829,0l-5.39,14.648l-7.852,0l21.992,-56.875l6.602,0l21.641,56.875l-7.852,0l-5.312,-14.648Zm-21.446,-6.446l19.141,0l-9.375,-25.898l-0.235,0l-9.531,25.898Zm50.547,21.094l-7.734,0l0,-56.875l7.734,0l0,56.875Zm57.5,0l-7.695,0l-27.383,-43.984l-0.234,0.078l0,43.906l-7.696,0l0,-56.875l7.696,0l27.382,43.906l0.235,-0.078l0,-43.828l7.695,0l0,56.875Z" style="fill:#fff;"/><path id="PEP" d="M144.727,63.188l0,22.812l-7.696,0l0,-56.875l21.758,0c6.068,0 10.781,1.562 14.141,4.688c3.359,3.125 5.039,7.239 5.039,12.343c0,5.183 -1.68,9.317 -5.039,12.403c-3.36,3.086 -8.073,4.628 -14.141,4.628l-14.062,0Zm0,-6.015l14.062,0c3.854,0 6.732,-1.035 8.633,-3.106c1.901,-2.07 2.851,-4.681 2.851,-7.832c0,-3.151 -0.957,-5.781 -2.871,-7.89c-1.914,-2.11 -4.785,-3.164 -8.613,-3.164l-14.062,0l0,21.992Zm77.304,2.461l-26.054,0l0,20.351l30.039,0l0,6.016l-37.735,0l0,-56.875l37.305,0l0,6.055l-29.609,0l0,18.398l26.054,0l0,6.055Zm20.703,3.554l0,22.813l-7.695,0l0,-56.875l21.758,0c6.068,0 10.781,1.562 14.14,4.688c3.36,3.125 5.04,7.239 5.04,12.343c0,5.183 -1.68,9.317 -5.04,12.403c-3.359,3.086 -8.072,4.628 -14.14,4.628l-14.063,0Zm0,-6.015l14.063,0c3.854,0 6.732,-1.035 8.633,-3.106c1.901,-2.07 2.851,-4.681 2.851,-7.832c0,-3.151 -0.957,-5.781 -2.871,-7.89c-1.914,-2.11 -4.785,-3.164 -8.613,-3.164l-14.063,0l0,21.992Z" style="fill:#fff;"/></g></svg>